<svg width="190" height="40" viewBox="0 0 190 40" version="1.1" xmlns="http://www.w3.org/2000/svg" xmlns:xlink="http://www.w3.org/1999/xlink"><defs><path id="path-1" d="M.723.07h5.409v5.644H.723z"/><path id="path-3" d="M.923.507h22.07V21.15H.923z"/><path id="path-5" d="M0 1.07h9.43v19.95H0z"/></defs><g id="Page-1" stroke="none" stroke-width="1" fill="none" fill-rule="evenodd"><g id="header_logo"><path id="Fill-1" fill="#00ABA7" fill-rule="nonzero" d="M96.6 34.446l-1.177 5.457h3.393l.215-1.023h-2.248l.952-4.434z"/><g id="Group-59"><path d="M102.847 35.386c-1.032 0-1.847.925-1.847 2.094 0 .925.647 1.49 1.503 1.49 1.024 0 1.848-.925 1.848-2.095 0-.916-.648-1.489-1.504-1.489m.072-1.03c1.471 0 2.616.95 2.616 2.437 0 1.784-1.337 3.207-3.096 3.207-1.48 0-2.624-.949-2.624-2.446 0-1.783 1.344-3.199 3.104-3.199" id="Fill-2" fill="#00ABA7" fill-rule="nonzero"/><path d="M107.534 37.955h1.768l-.352-2.512-1.416 2.512zm1.857 1.006h-2.384l-.537.94h-1.304l3.24-5.456h1.424l.88 5.456h-1.184l-.135-.94z" id="Fill-4" fill="#00ABA7" fill-rule="nonzero"/><path d="M115.741 36.867c0-.793-.552-1.399-1.343-1.399h-.929l-.735 3.412h.943c1.289 0 2.064-.925 2.064-2.013m1.185-.073c0 1.43-.952 3.108-3.457 3.108h-2.095l1.175-5.457h2.065c1.183 0 2.312.933 2.312 2.349" id="Fill-6" fill="#00ABA7" fill-rule="nonzero"/><path id="Fill-8" fill="#00ABA7" fill-rule="nonzero" d="M118.46 34.446h1.137l-1.176 5.456h-1.136z"/><path id="Fill-10" fill="#00ABA7" fill-rule="nonzero" d="M121.612 36.033l-.831 3.87h-1.137l1.177-5.457h1.167l1.664 3.739.808-3.739h1.136l-1.175 5.456h-1.096z"/><g id="Group-14" transform="translate(125.176 34.286)"><g id="Fill-12-Clipped"><mask id="mask-2" fill="#fff"><use xlink:href="#path-1"/></mask><path d="M3.93.07c1.138 0 1.873.63 2.202 1.326l-1.049.457c-.192-.45-.72-.752-1.312-.752-.992 0-1.864.9-1.864 2.094 0 .826.568 1.489 1.504 1.489.456 0 .808-.18 1.08-.417l.136-.663H3.203l.224-.998H5.98l-.465 2.11c-.52.63-1.288.999-2.168.999-1.456 0-2.624-.94-2.624-2.446C.723 1.428 2.083.07 3.931.07" id="Fill-12" fill="#00ABA7" fill-rule="nonzero" mask="url(#mask-2)"/></g></g><path id="Fill-15" fill="#00ABA7" fill-rule="nonzero" d="M134.962 34.446h1.137l-1.177 5.456h-1.135z"/><path id="Fill-17" fill="#00ABA7" fill-rule="nonzero" d="M138.114 36.033l-.832 3.87h-1.136l1.177-5.457h1.167l1.664 3.739.808-3.739h1.135l-1.174 5.456h-1.097z"/><path id="Fill-19" fill="#00ABA7" fill-rule="nonzero" d="M144.113 36.033l-.831 3.87h-1.137l1.177-5.457h1.167l1.664 3.739.808-3.739h1.136l-1.175 5.456h-1.097z"/><path d="M151.432 35.386c-1.031 0-1.847.925-1.847 2.094 0 .925.647 1.49 1.503 1.49 1.024 0 1.849-.925 1.849-2.095 0-.916-.648-1.489-1.505-1.489m.072-1.03c1.472 0 2.616.95 2.616 2.437 0 1.784-1.336 3.207-3.095 3.207-1.48 0-2.625-.949-2.625-2.446 0-1.783 1.345-3.199 3.104-3.199" id="Fill-21" fill="#00ABA7" fill-rule="nonzero"/><path id="Fill-23" fill="#00ABA7" fill-rule="nonzero" d="M154.832 34.446h1.24l.576 4.196 2.375-4.196h1.352l-3.232 5.456h-1.424z"/><path d="M161.311 37.955h1.768l-.352-2.512-1.416 2.512zm1.857 1.006h-2.384l-.537.94h-1.304l3.24-5.456h1.424l.88 5.456h-1.184l-.135-.94z" id="Fill-25" fill="#00ABA7" fill-rule="nonzero"/><path id="Fill-27" fill="#00ABA7" fill-rule="nonzero" d="M166.798 35.468h-1.56l.225-1.023h4.256l-.217 1.023h-1.56l-.951 4.435h-1.145z"/><path id="Fill-29" fill="#00ABA7" fill-rule="nonzero" d="M170.614 34.446h1.136l-1.177 5.456h-1.135z"/><path d="M175.085 35.386c-1.031 0-1.847.925-1.847 2.094 0 .925.647 1.49 1.503 1.49 1.024 0 1.849-.925 1.849-2.095 0-.916-.649-1.489-1.505-1.489m.072-1.03c1.472 0 2.616.95 2.616 2.437 0 1.784-1.335 3.207-3.096 3.207-1.48 0-2.624-.949-2.624-2.446 0-1.783 1.345-3.199 3.104-3.199" id="Fill-31" fill="#00ABA7" fill-rule="nonzero"/><path id="Fill-33" fill="#00ABA7" fill-rule="nonzero" d="M180.052 36.033l-.831 3.87h-1.137l1.177-5.457h1.167l1.664 3.739.808-3.739h1.137l-1.176 5.456h-1.096z"/><path d="M29.462 7.065c-.684-.322-1.52-.542-2.508-.664a26.936 26.936 0 00-3.261-.18c-1.459 0-2.759.074-3.899.22-1.138.149-2.135.437-2.986.866a5.384 5.384 0 00-2.075 1.83c-.532.792-.935 1.832-1.209 3.12l-2.918 14.366c.214.026.486.054.82.081.244.027.548.04.914.04h.56c.822 0 2.342-.04 3.315-.12l2.737-13.643c.182-.912.599-1.542 1.253-1.892.653-.348 1.512-.522 2.576-.522 1.307 0 2.167.174 2.577.522.41.35.524.98.342 1.892l-2.736 13.642c.243.026.516.054.82.081.244.027.54.04.89.04h1.162c.852 0 1.763-.04 2.736-.12l2.919-14.408a9.607 9.607 0 00.137-1.529c0-.938-.19-1.696-.57-2.273-.381-.577-.912-1.026-1.596-1.349" id="Fill-35" fill="#FFF" fill-rule="nonzero"/><path d="M42.48 10.888h5.838c.182-.428.333-.885.455-1.368.122-.402.228-.865.32-1.388a9.194 9.194 0 00.137-1.59h-5.838L44.441.71l-5.882 1.852-3.557 18.226a9.715 9.715 0 00-.136.804 5.645 5.645 0 00-.046.725c0 .94.189 1.697.57 2.274.38.577.912 1.027 1.595 1.348.685.322 1.52.544 2.51.664a26.89 26.89 0 003.26.181c.181-.483.333-.965.455-1.449.121-.428.228-.898.319-1.408.091-.51.137-1.007.137-1.489-1.307 0-2.174-.175-2.6-.523-.425-.349-.546-.979-.364-1.892l1.778-9.135z" id="Fill-37" fill="#FFF" fill-rule="nonzero"/><path d="M63.457 6.462a69.315 69.315 0 00-1.14-.08 22.147 22.147 0 00-1.414-.041c-1.246 0-2.38.067-3.398.2-1.018.136-1.914.411-2.69.826a5.528 5.528 0 00-1.96 1.79c-.532.78-.935 1.812-1.209 3.1l-2.919 14.366c.214.026.487.054.822.081.242.026.546.04.912.04h1.185c.82 0 1.717-.04 2.69-.121l2.737-13.642c.182-.912.6-1.495 1.254-1.75.653-.255 1.512-.383 2.576-.383.198 0 .395.015.593.024l3.035-4.321c.002 0-.71-.062-1.074-.09" id="Fill-39" fill="#FFF" fill-rule="nonzero"/><path d="M76.61 22.438l-3.283.08c-1.58.055-2.69-.247-3.328-.905-.638-.657-.958-1.59-.958-2.797 0-.965.13-1.938.388-2.917a7.87 7.87 0 011.254-2.656 6.524 6.524 0 012.212-1.912c.896-.483 1.968-.71 3.214-.684l2.873.08-2.371 11.71zM82.494 6.38a86.71 86.71 0 00-2.986-.12 141.57 141.57 0 00-3.352-.04c-2.068 0-3.892.369-5.472 1.106-1.582.738-2.912 1.718-3.99 2.937a12.66 12.66 0 00-2.462 4.227 14.824 14.824 0 00-.844 4.969c0 2.522.73 4.386 2.188 5.594 1.46 1.207 3.618 1.81 6.476 1.81 1.154 0 2.286-.007 3.396-.02a63.844 63.844 0 002.988-.1 97.861 97.861 0 002.964-.12l4.058-20.082c-.942-.054-1.931-.106-2.964-.161z" id="Fill-41" fill="#FFF" fill-rule="nonzero"/><path d="M125.514 6.462a69.316 69.316 0 00-1.14-.08 22.147 22.147 0 00-1.414-.041c-1.246 0-2.38.067-3.397.2-1.018.136-1.915.411-2.69.826a5.528 5.528 0 00-1.96 1.79c-.533.78-.935 1.812-1.209 3.1l-2.92 14.366c.214.026.488.054.822.081.243.026.547.04.912.04h1.186c.82 0 1.717-.04 2.69-.121l2.736-13.642c.182-.912.6-1.495 1.254-1.75.654-.255 1.511-.383 2.576-.383.16 0 .32.013.481.02l3.04-4.328a91.29 91.29 0 00-.967-.078" id="Fill-43" fill="#FFF" fill-rule="nonzero"/><path d="M140.197 13.927c-.456.336-1.08.603-1.87.804-.79.201-1.716.35-2.782.444a39.08 39.08 0 01-3.42.14c.122-.59.336-1.167.64-1.73a6.17 6.17 0 011.14-1.51 5.638 5.638 0 011.618-1.087c.623-.28 1.33-.421 2.12-.421 1.216 0 2.06.215 2.53.643.472.43.708.926.708 1.49 0 .483-.228.892-.684 1.227m5.928-3.18c-.212-.79-.616-1.522-1.208-2.193-.594-.67-1.407-1.227-2.44-1.67-1.034-.443-2.372-.664-4.012-.664-2.19 0-4.074.382-5.654 1.147-1.582.764-2.874 1.757-3.878 2.978a11.92 11.92 0 00-2.21 4.185 16.445 16.445 0 00-.707 4.77c0 2.602.721 4.52 2.165 5.754s3.778 1.851 7 1.851c1.246 0 2.363-.066 3.352-.199a29.02 29.02 0 002.53-.44 16.767 16.767 0 002.189-.636 7.975 7.975 0 000-1.716 11.29 11.29 0 00-.227-1.315c-.122-.43-.244-.805-.366-1.127a15.31 15.31 0 01-1.914.563c-.61.135-1.308.256-2.098.363a19.76 19.76 0 01-2.644.16c-1.552 0-2.714-.196-3.49-.59-.774-.393-1.162-1.065-1.162-2.016v-.57a.52.52 0 01.045-.244c1.643 0 3.353-.06 5.13-.182 1.779-.12 3.405-.388 4.88-.804 1.473-.416 2.682-1.032 3.625-1.852.941-.817 1.414-1.91 1.414-3.278a8.78 8.78 0 00-.32-2.275" id="Fill-45" fill="#FFF" fill-rule="nonzero"/><path d="M161.012 6.462c-.791-.134-1.718-.201-2.782-.201-2.766 0-4.856.577-6.27 1.73-1.412 1.154-2.12 2.952-2.12 5.393 0 1.314.411 2.367 1.232 3.159.82.79 1.945 1.294 3.374 1.509 1.155.188 2.059.422 2.714.704.652.282.98.731.98 1.348 0 .564-.131 1.013-.388 1.348-.258.336-.57.604-.934.805a3.59 3.59 0 01-1.186.403c-.426.067-.806.1-1.14.1-.61 0-1.164-.04-1.664-.121a10.57 10.57 0 01-1.3-.281 5.473 5.473 0 01-1.186-.444c-.486.35-.89.72-1.208 1.108-.32.388-.586.758-.798 1.106a8.37 8.37 0 00-.594 1.167c.366.296.836.563 1.414.806.517.215 1.178.395 1.984.543.805.147 1.802.221 2.986.221 1.429 0 2.73-.141 3.905-.423 1.176-.282 2.185-.724 3.028-1.328a6.126 6.126 0 001.955-2.314c.46-.938.688-2.065.688-3.38s-.458-2.381-1.375-3.2c-.917-.818-2.064-1.348-3.44-1.589-1.1-.215-1.94-.463-2.52-.744-.582-.282-.873-.705-.873-1.269 0-.858.236-1.448.708-1.77.47-.322 1.026-.482 1.664-.482.608 0 1.154.04 1.642.12.485.081.912.161 1.276.241.426.107.806.216 1.14.322.548-.375.996-.77 1.346-1.187.349-.415.63-.798.843-1.146.243-.403.425-.791.547-1.167a8.882 8.882 0 00-1.642-.645 17.892 17.892 0 00-2.006-.442" id="Fill-47" fill="#FFF" fill-rule="nonzero"/><g id="Group-51" transform="translate(166.53 5.714)"><g id="Fill-49-Clipped"><mask id="mask-4" fill="#fff"><use xlink:href="#path-3"/></mask><path d="M14.147 16.724l-3.283.08c-1.58.055-2.69-.247-3.329-.905-.638-.658-.957-1.59-.957-2.797 0-.966.13-1.938.387-2.918A7.87 7.87 0 018.22 7.528a6.524 6.524 0 012.212-1.912c.897-.482 1.968-.71 3.215-.683l2.873.08-2.372 11.71zM20.03.667a86.71 86.71 0 00-2.987-.12c-1.11-.027-2.227-.04-3.352-.04-2.067 0-3.891.369-5.472 1.106C6.638 2.35 5.308 3.33 4.23 4.55a12.66 12.66 0 00-2.462 4.226 14.824 14.824 0 00-.844 4.97c0 2.522.73 4.386 2.189 5.594 1.46 1.207 3.618 1.81 6.475 1.81 1.155 0 2.287-.007 3.397-.02a63.844 63.844 0 002.987-.1 97.861 97.861 0 002.964-.121L22.994.828A777.97 777.97 0 0020.03.667z" id="Fill-49" fill="#FFF" fill-rule="nonzero" mask="url(#mask-4)"/></g></g><path d="M102.714 16.502a9.511 9.511 0 01-1.276 2.897 7.292 7.292 0 01-2.258 2.174c-.927.577-2.03.865-3.306.865H93.23l1.96-9.417c.184-.912.578-1.529 1.186-1.851.608-.321 1.444-.483 2.508-.483 1.671 0 2.797.221 3.374.664.578.443.867 1.147.867 2.114 0 .965-.137 1.978-.41 3.037m3.83-8.655c-1.55-1.004-3.8-1.506-6.749-1.506-1.46 0-2.751.068-3.876.201-1.124.134-2.098.415-2.918.844a5.348 5.348 0 00-2.006 1.809c-.518.777-.912 1.808-1.186 3.094l-4.917 23.538 5.876-1.847 1.685-7.357h3.512c2.279 0 4.233-.388 5.86-1.164 1.626-.777 2.963-1.807 4.012-3.093a12.522 12.522 0 002.303-4.357c.486-1.62.73-3.274.73-4.96 0-2.464-.776-4.198-2.326-5.202" id="Fill-52" fill="#FFF" fill-rule="nonzero"/><g id="Group-56" transform="translate(0 5.714)"><g id="Fill-54-Clipped"><mask id="mask-6" fill="#fff"><use xlink:href="#path-5"/></mask><path d="M7.725 1.091a28.806 28.806 0 00-2.214 0c-.339.014-1.148.067-1.706.102L0 20.897c.184.028.431.055.738.082.246.027.537.04.877.04h1.152c.86 0 1.782-.04 2.767-.122L9.43 1.193a50.234 50.234 0 00-1.705-.102" id="Fill-54" fill="#FFF" fill-rule="nonzero" mask="url(#mask-6)"/></g></g><path d="M10.806 0L4.507 1.99c-.059.288-.167.875-.204 1.239-.04.393-.08.757-.09 1.246.184.029.414.064.69.083 1.692.112 2.695.082 4.15 0 .34-.02.646-.054.923-.083.123-.382.246-.82.369-1.313.093-.411.176-.883.254-1.417.077-.534.145-1.115.207-1.745z" id="Fill-57" fill="#00ABA7" fill-rule="nonzero"/></g></g></g></svg>