<svg xmlns="http://www.w3.org/2000/svg" width="437.431" height="178.125" viewBox="0 0 328.073 133.594"><g data-name="Livello 1"><clipPath id="a"><path transform="matrix(1 0 0 -1 0 133.594)" d="M0 133.594h328.073V0H0z"/></clipPath><g clip-path="url(#a)"><path d="m105.002 82.85-11.62-17.824-11.62 17.824c-4.332 6.893-4.235 6.893-15.658 6.893l21.37-31.906-19.695-28.754c11.915 0 11.816 0 16.05 6.402l9.552 14.573 9.258-14.573c4.234-6.501 4.135-6.402 16.345-6.402L99.29 57.837l21.37 31.906c-11.423 0-11.227 0-15.658-6.893M127.462 81.472V29.279c10.34 0 10.34 0 10.34 7.879v52.585c-10.34 0-10.34 0-10.34-8.271M160.355 89.743c-10.242 0-10.242 0-10.242-8.665v-43.23c0-8.57 0-8.57 10.242-8.57h23.24c8.567 0 8.567 0 8.567 8.57h-31.807v16.839h20.483c8.37 0 8.37 0 8.37 8.37h-28.853v18.02h22.551c9.256 0 9.256 0 9.256 8.666zM263.167 81.472V41.787L245.836 82.85c-2.956 6.794-2.857 6.893-8.174 6.893h-5.22l-20.284-47.956v47.956c-10.242 0-10.242 0-10.242-8.271v-52.39h5.613c9.55 0 9.454-.098 12.802 7.683l14.475 34.267c.69 1.675 2.66 7.288 2.856 7.879l2.855-7.88 14.673-34.266c3.152-7.486 3.053-7.682 11.423-7.682h6.992v60.66c-10.438 0-10.438 0-10.438-8.271M296.266 89.743c-10.242 0-10.242 0-10.242-8.665v-43.23c0-8.57 0-8.57 10.242-8.57h23.239c8.568 0 8.568 0 8.568 8.57h-31.807v16.839h20.483c8.37 0 8.37 0 8.37 8.37h-28.853v18.02h22.55c9.257 0 9.257 0 9.257 8.666z" fill="#002d62"/><path d="M94.631 113.289h-3.145v13.048h2.968c6.054 0 6.054 0 6.054-6.7 0-4.908-1.939-6.348-5.877-6.348m.382 15.546h-3.527c-3.056 0-3.056 0-3.056-2.498v-13.048c0-2.527 0-2.527 3.056-2.527h3.821c5.407 0 8.228 3.115 8.228 8.904 0 5.73-3.056 9.169-8.522 9.169M106.471 126.337v-15.576c3.086 0 3.086 0 3.086 2.351v15.694c-3.086 0-3.086 0-3.086-2.469M126.542 126.014c-1.058 1.793-2.792 2.998-5.79 2.998-6.289 0-8.14-4.291-8.14-9.228 0-4.937 1.616-9.082 8.317-9.082h7.024c0 2.616 0 2.616-2.469 2.616h-4.555c-5.143 0-5.143-.205-5.143 6.466 0 3.703.999 6.67 5.143 6.67 5.084 0 5.084-.058 5.084-5.583h-5.848c-1.881 0-1.911 0-1.911-2.586h10.845v10.521c-2.557 0-2.557 0-2.557-2.792M132.386 126.337v-15.576c3.086 0 3.086 0 3.086 2.351v15.694c-3.086 0-3.086 0-3.086-2.469M148.519 113.318h-2.733v15.488c-3.027 0-3.027 0-3.027-2.498v-12.99h-5.173c0-2.557 0-2.557 2.263-2.557h11.139c0 2.557 0 2.557-2.469 2.557M158.01 112.76l-3.644 10.257h7.288zm5.025 14.136-.588-1.616h-8.845l-.588 1.616c-.647 1.881-.647 1.91-3.938 1.91l5.995-16.046c.764-2.058.823-2.058 2.939-2.058h2.028l6.965 18.104c-3.262 0-3.262 0-3.968-1.91M171.7 128.806c-2.88 0-2.88 0-2.88-2.498v-15.546c3.057 0 3.057 0 3.057 2.527v13.019h4.497c2.439 0 2.439 0 2.439 2.498zM194.326 128.835h-6.083c0-2.674 0-2.674 2.469-2.674h3.526c4.35 0 4.35.176 4.35-2.35 0-4.468-10.816-1.353-10.933-7.73-.058-3.263 2.086-5.379 7.23-5.379h6.112c0 2.616 0 2.616-2.41 2.616h-3.821c-4.054 0-4.054-.176-4.054 2.616 0 3.644 10.902 1 10.902 7.582 0 2.586-1.616 5.32-7.288 5.32M212.25 113.113c-5.407 0-5.407 0-5.407 6.67 0 3.704.94 6.672 5.407 6.672 5.467 0 5.467 0 5.467-6.642 0-3.732-.911-6.7-5.468-6.7m0 15.899c-6.935 0-8.58-4.291-8.58-9.228 0-4.937 1.674-9.257 8.58-9.257 6.995 0 8.612 4.32 8.612 9.286 0 4.908-1.617 9.199-8.611 9.199M226.851 128.806c-2.88 0-2.88 0-2.88-2.498v-15.546c3.057 0 3.057 0 3.057 2.527v13.019h4.496c2.44 0 2.44 0 2.44 2.498zM247.186 128.806h-4.556c-5.495 0-7.67-2.233-7.67-8.111v-9.993c3.145 0 3.145 0 3.145 2.264v7.582c0 3.733.823 5.554 4.525 5.554h4.556v-15.4c3.145 0 3.145 0 3.145 2.469v12.931c0 2.704 0 2.704-3.145 2.704M263.11 113.318h-2.732v15.488c-3.027 0-3.027 0-3.027-2.498v-12.99h-5.173c0-2.557 0-2.557 2.263-2.557h11.139c0 2.557 0 2.557-2.47 2.557M267.721 126.337v-15.576c3.086 0 3.086 0 3.086 2.351v15.694c-3.086 0-3.086 0-3.086-2.469M282.355 113.113c-5.407 0-5.407 0-5.407 6.67 0 3.704.94 6.672 5.407 6.672 5.467 0 5.467 0 5.467-6.642 0-3.732-.911-6.7-5.467-6.7m0 15.899c-6.936 0-8.581-4.291-8.581-9.228 0-4.937 1.675-9.257 8.581-9.257 6.994 0 8.611 4.32 8.611 9.286 0 4.908-1.617 9.199-8.611 9.199M308.772 128.806c-2.175 0-2.175 0-3.468-1.998l-8.111-12.314v14.312c-3.115 0-3.115 0-3.115-2.498v-15.606h1.616c2.381 0 2.381 0 3.557 1.852l8.111 12.373v-12.05c0-2.175 0-2.175 3.115-2.175v18.104zM319.906 128.835h-6.083c0-2.674 0-2.674 2.469-2.674h3.526c4.35 0 4.35.176 4.35-2.35 0-4.468-10.816-1.353-10.933-7.73-.058-3.263 2.086-5.379 7.23-5.379h6.112c0 2.616 0 2.616-2.41 2.616h-3.821c-4.054 0-4.054-.176-4.054 2.616 0 3.644 10.902 1 10.902 7.582 0 2.586-1.616 5.32-7.288 5.32" fill="#277a00"/><path d="M74.925 130.169c-1.527-5.036-37.411-123.351-38.57-126.39C34.993.214 31.98.102 32.008.12c-3.015-.724-4.824 1.99-5.374 3.57L0 98.32l9.257 2.167 22.603-78.44 34.214 111.548 9.067-2.71z" fill="#47af11"/></g></g></svg>